<?xml version="1.0" encoding="utf-8"?>
<!-- Generator: Adobe Illustrator 28.0.0, SVG Export Plug-In . SVG Version: 6.00 Build 0)  -->
<svg version="1.1" id="textblock" xmlns:svgjs="http://svgjs.dev/svgjs"
	 xmlns="http://www.w3.org/2000/svg" xmlns:xlink="http://www.w3.org/1999/xlink" x="0px" y="0px" viewBox="0 0 1500 935"
	 style="enable-background:new 0 0 1500 935;" xml:space="preserve">
<style type="text/css">
	.st0{display:none;}
	.st1{fill:none;}
	.st2{fill:#0718C4;}
</style>
<g id="tight-bounds" transform="matrix(1,0,0,1,0.2400000000000091,-0.09999999999999432)" class="st0">
	<rect x="0.2" y="0.1" class="st1" width="1497.2" height="935.8"/>
</g>
<path id="logo-text" class="st2" d="M426.3,557.5c-0.1,1.2-1.2,2.2-2.4,2.2h-19.2c-3,0-5.1-1.4-6.3-4.2
	c-1.2-2.8-1.8-6.6-1.8-11.3l0,0c0-3.5,0.3-7.5,0.8-11.9l0,0l16.4-151.9c0.1-1.2,1.2-2.2,2.4-2.2H463c21.6,0,37.8,3.6,48.5,10.8
	c10.7,7.2,16.1,19.2,16.1,35.9l0,0c0,10.2-2.3,19.5-7,28c-4.7,8.4-10.7,15.7-17.9,21.9c-7.3,6.2-15.1,10.9-23.4,14.2
	c-8.3,3.3-16,5-23.2,5l0,0c-1.9,0-4.1-0.6-6.4-1.8c-2.4-1.2-4.4-2.8-6.1-4.7c-1.7-1.9-2.5-3.9-2.5-5.8l0,0c0-1.9,0.6-3.3,1.8-4.1
	c1.2-0.8,2.6-1.2,4-1.4l0,0c7.9-1.6,15.4-4.4,22.3-8.3c6.9-3.9,12.6-9.2,16.9-15.8c4.3-6.6,6.4-14.4,6.4-23.6l0,0
	c0-7.9-1.9-14.1-5.6-18.5c-3.8-4.4-9.3-7.5-16.5-9.2c-7.2-1.8-16.2-2.6-26.9-2.6l0,0L426.3,557.5z M568.5,551.3L568.5,551.3
	l-6.2-39.2c-0.1-0.4,0-0.9,0.1-1.3c6.4-16.6,13-31.1,19.7-43.3c6.8-12.4,13.7-22.1,20.7-28.9c7-6.9,14.2-10.3,21.4-10.3l0,0
	c4,0,6.9,1.3,8.7,3.8c1.8,2.6,2.6,5.8,2.6,9.7l0,0c0,3.5-0.4,6.9-1.2,10.1c-0.8,3.3-1.9,6-3.4,8.1c-1.5,2.1-3.3,3.2-5.4,3.2l0,0
	c-1.9,0-4.1-0.6-6.5-1.8c-2.4-1.2-5.6-1.8-9.6-1.8l0,0c-2.6,0-6,2.7-10,8.2c-4,5.5-8.2,12.7-12.6,21.7c-4.3,9.1-8.1,19-11.5,29.8
	C572,530,569.8,540.7,568.5,551.3z M546.4,561.3L546.4,561.3c-2.3,0-4-0.4-5.2-1.2c-1.1-0.8-1.7-2.9-1.8-6.2
	c-0.1-3.3,0.3-8.7,1.2-16.1l0,0l12.2-107.6c0.1-1.2,1.2-2.2,2.4-2.2h16.3c2.6,0,5,1.9,7.1,5.8c2.1,3.9,3.2,8.3,3.2,13.2l0,0
	c0,2.3-0.7,5.8-2,10.7c-1.3,4.9-2.8,10-4.6,15.3c-1.8,5.4-3.3,10.1-4.7,14.1l0,0l-5.7,17.9c-0.5,1.7,0.9,3.4,2.7,3.1l2.7-0.4
	c1.6-0.3,3,1.1,2.8,2.7l-4.4,40.9c-0.2,1.8-1.2,3.3-3.2,4.6c-1.9,1.3-4.2,2.4-6.8,3.2c-2.5,0.8-4.9,1.3-7.2,1.7
	C549.1,561.1,547.4,561.3,546.4,561.3z M678.3,561.5L678.3,561.5c-15.1,0-26.9-4.5-35.2-13.4c-8.3-8.9-12.5-21.9-12.5-39.2l0,0
	c0-11.4,1.9-22,5.6-31.8c3.8-9.7,9-18.3,15.5-25.7c6.5-7.4,14-13.2,22.5-17.3c8.5-4.1,17.6-6.2,27.1-6.2l0,0
	c15.1,0,26.7,4.5,34.7,13.5c8,9,12,22.5,12,40.6l0,0c0,10.9-1.8,21.2-5.4,30.8c-3.6,9.6-8.5,18-14.9,25.3
	c-6.3,7.3-13.7,13-22.2,17.1C697,559.5,688,561.5,678.3,561.5z M684.6,541.8L684.6,541.8c6.7,0,12.4-2.5,17.3-7.4
	c4.9-4.9,8.5-11.7,11.1-20.3c2.6-8.6,3.9-18.3,3.9-29l0,0c0-11.4-1.7-20.5-5.2-27.2c-3.4-6.7-9.1-10-17-10l0,0
	c-6.5,0-12.3,2.5-17.3,7.4c-5,4.9-8.9,11.6-11.6,20.2c-2.7,8.5-4.1,18.3-4.1,29.2l0,0c0,12.1,1.9,21.4,5.8,27.7
	C671.3,538.6,677.1,541.8,684.6,541.8z M741.6,615.9L741.6,615.9c-4.4,0-8.3-1.1-11.7-3.4c-3.4-2.3-6.1-5.5-8.1-9.8
	s-2.9-9.1-2.9-14.8l0,0c0-1.8,0.4-3,1.2-3.8c0.8-0.8,1.5-1.2,2.2-1.2l0,0c0.9,0,1.8,0.4,2.9,1.2c1.1,0.8,2.7,1.9,5,3.3l0,0
	c3.5,2.1,7.4,4.1,11.8,6c4.3,1.8,7.9,2.7,10.9,2.7l0,0c1.9,0,3.7-0.9,5.3-2.7c1.6-1.9,3-5.1,4.4-9.7c1.3-4.6,2.6-10.9,3.8-19.1
	c1.2-8.2,2.5-18.6,3.7-31.3l0,0l10.1-103.1c0.1-1.2,1.2-2.2,2.4-2.2h16.8c2.1,0,4,1.1,5.5,3.4c1.6,2.3,2.8,4.9,3.6,7.8
	c0.8,2.9,1.2,5.5,1.2,7.8l0,0c0,4-0.6,9.7-1.8,17c-1.2,7.3-2.6,16.1-4.2,26.3c-1.6,10.2-3,21.9-4.2,35.1l0,0l-2.9,32.5
	c-1.2,13.5-4.4,24.6-9.5,33.2c-5.1,8.6-11.6,14.9-19.4,18.9C759.7,613.9,751,615.9,741.6,615.9z M797.7,413L797.7,413
	c-4.9,0-9.2-1.7-12.8-5c-3.6-3.3-5.4-7.7-5.4-13.2l0,0c0-6.5,2.1-11.6,6.3-15.2c4.2-3.6,9.1-5.4,14.5-5.4l0,0
	c5.1,0,9.4,1.5,12.8,4.5c3.4,3,5.1,7.5,5.1,13.5l0,0c0,6-2,10.9-6.1,14.9C808.2,411,803.4,413,797.7,413z M863.2,561.8L863.2,561.8
	c-13.5,0-24-4.3-31.4-12.8c-7.4-8.5-11.1-20.2-11.1-35.2l0,0c0-12.5,1.8-23.9,5.3-34.3s8.4-19.4,14.8-27.2
	c6.3-7.7,13.8-13.7,22.3-17.9c8.5-4.2,17.8-6.3,27.8-6.3l0,0c12,0,21.1,2.6,27.4,7.7c6.3,5.1,9.5,12.4,9.5,21.9l0,0
	c0,9.7-3.2,18.1-9.6,25.3c-6.4,7.2-15.7,13.4-27.7,18.5c-12.1,5.1-26.5,9.4-43.2,12.9l0,0l-2.9-13.3c-0.3-1.4,0.6-2.7,2.1-2.9
	c8.7-1.3,16.7-3.3,24-6c8.1-3,14.6-7,19.5-12c4.9-5,7.4-10.9,7.4-17.8l0,0c0-4.7-0.9-8.4-2.7-10.8c-1.9-2.5-5.2-3.7-9.9-3.7l0,0
	c-7.2,0-13.3,2.6-18.3,7.9c-5,5.3-8.8,12.1-11.3,20.6c-2.6,8.4-3.9,17.4-3.9,26.9l0,0c0,12.8,2,21.4,6,25.7
	c3.9,4.3,9.8,6.5,17.5,6.5l0,0c8.1,0,15.2-1.3,21.3-3.9c6.1-2.5,11.3-5.2,15.7-8l0,0c1.4-0.9,2.6-1.6,3.7-2.1
	c1.1-0.5,1.9-0.8,2.6-0.8l0,0c0.9,0,1.6,0.4,2.1,1.1s0.8,1.5,0.8,2.4l0,0c0,3.2-1.4,6.9-4.2,11.1c-2.8,4.2-6.8,8.4-12,12.4
	c-5.2,4-11.3,7.4-18.4,10.2C879.4,560.5,871.6,561.8,863.2,561.8z M980.6,561.8L980.6,561.8c-13.9,0-24.5-4.3-31.9-12.9
	s-11.1-21-11.1-37.2l0,0c0-15.8,3.1-30.1,9.3-42.7c6.3-12.7,14.8-22.7,25.6-30c10.8-7.3,23.2-10.9,37.1-10.9l0,0
	c7.4,0,13.9,1,19.5,2.9c5.6,1.9,8.4,6,8.4,12.1l0,0c0,2.6-0.4,5.3-1.3,7.9c-0.9,2.6-2,4.8-3.4,6.6c-1.4,1.8-2.8,2.6-4.2,2.6l0,0
	c-0.7,0-1.7-0.2-2.9-0.6c-1.2-0.5-2.3-0.9-3.2-1.5l0,0c-1.9-1.2-4.3-2.6-7-4.2c-2.7-1.6-5.7-3-9-4.2c-3.2-1.2-6.6-1.8-10.1-1.8l0,0
	c-5.5,0-10.3,2.6-14.7,7.7c-4.3,5.1-7.7,11.9-10.1,20.3c-2.5,8.4-3.7,17.6-3.7,27.4l0,0c0,13,2,21.7,5.9,26c4,4.3,9.7,6.5,17.3,6.5
	l0,0c6.3,0,11.7-1.1,16.1-3.3c4.4-2.2,8.6-4.7,12.7-7.5l0,0c1.6-1.1,2.8-1.7,3.7-2c0.9-0.2,1.7-0.4,2.4-0.4l0,0
	c0.9,0,1.6,0.4,2.1,1.1c0.5,0.7,0.8,1.5,0.8,2.4l0,0c0,3.2-1.3,6.8-4,10.9c-2.6,4.2-6.2,8.1-10.8,11.9c-4.6,3.8-9.7,6.9-15.5,9.4
	C992.9,560.6,986.9,561.8,980.6,561.8z M1075,561.8L1075,561.8c-8.4,0-14.4-2.5-17.8-7.4c-3.4-4.9-4.5-12.7-3.3-23.2l0,0l9.9-77.7
	c0.2-1.5-0.9-2.7-2.4-2.7h-5.7c-2.6,0-4-1.4-4-4.2l0,0c0-1.8,1.2-4.3,3.5-7.7c2.4-3.3,5.4-7,9.1-11.1c3.7-4,7.5-7.9,11.5-11.6
	c4-3.7,7.6-6.7,11-9.1c3.3-2.4,5.9-3.5,7.7-3.5l0,0c1.9,0,3.3,0.7,4,2.2c0.7,1.5,0.9,3.4,0.5,5.7l0,0l-2.1,18.1
	c-0.2,1.4,1,2.7,2.4,2.7h26.8c2.6,0,4.2,0.4,4.6,1.3c0.5,0.9,0.3,2.3-0.4,4.2l0,0c-2.1,6-4.1,9.6-6,10.9c-1.8,1.3-5.2,2-10.1,2l0,0
	h-18.9c-1.2,0-2.3,0.9-2.4,2.2l-6.3,54.3c-0.4,3.3-0.7,6.5-0.9,9.5c-0.2,3-0.4,5.7-0.4,8.2l0,0c0,4,1,6.9,2.9,8.5
	c1.9,1.7,5.1,2.5,9.5,2.5l0,0c4.2,0,7.9-0.9,10.9-2.6c3.1-1.8,5.3-2.6,6.5-2.6l0,0c1.4,0,2.1,0.9,2.1,2.6l0,0c0,1.8-0.9,4.2-2.8,7.4
	c-1.8,3.2-4.6,6.4-8.2,9.6c-3.6,3.3-8,6-13.3,8.2C1087.7,560.7,1081.7,561.8,1075,561.8z M1168.7,561.3h-18.5
	c-3.2,0-5.6-1.9-7.4-5.8c-1.8-3.9-2.6-8.4-2.4-13.5l0,0c0.2-6,0.7-13.1,1.6-21.4c0.9-8.3,1.8-16.4,2.6-24.5l0,0l7.4-62.3
	c1.1-7.9,1.3-15,0.8-21.1c-0.5-6.2-1.2-11.6-2.1-16.4c-0.9-4.7-1.3-8.8-1.3-12.1l0,0c0-1.9,1.5-3.7,4.6-5.2
	c3.1-1.5,6.6-2.7,10.7-3.6c4-1,7.5-1.5,10.3-1.5l0,0c3,0,5.6,2.1,7.9,6.4c2.3,4.3,3.4,9.3,3.4,14.9l0,0c0,1.2-0.2,4.7-0.5,10.3
	c-0.4,5.6-1.1,12-2.1,19.3l0,0l-8.4,60.7c-1.8,12.7-3,25.3-3.7,37.8C1170.8,536,1169.9,548.6,1168.7,561.3L1168.7,561.3z
	 M1238,615.9L1238,615.9c-7.6,0-14.2-1.2-20.1-3.5c-5.8-2.4-10.4-6.2-13.7-11.5s-5-12.3-5-21.1l0,0c0-1.8,0.3-2.9,0.9-3.5
	c0.6-0.6,1.2-0.9,2-0.9l0,0c0.9,0,1.9,0.4,3.2,1.1c1.2,0.7,3,1.8,5.3,3.2l0,0c3.2,2.1,6.8,4.4,11,6.8c4.1,2.4,8.5,4.4,13.3,6.2
	c4.7,1.8,9.4,2.6,14,2.6l0,0c4.6,0,8.8-1.4,12.7-4.3c3.9-2.9,7.5-8,11-15.2c3.4-7.2,6.7-17.1,9.9-29.8l0,0l14.4-58.6
	c0.2-0.9,1-1.7,2-1.8l0,0c-6.5,17.2-14,31.4-22.5,42.6c-8.5,11.2-17.2,19.5-25.9,24.8c-8.7,5.4-16.6,8.1-23.6,8.1l0,0
	c-7.4,0-12.8-2-16.4-6.1c-3.5-4-5.3-9.7-5.3-16.9l0,0c0-3.5,0.2-7.4,0.7-11.6c0.4-4.2,1.2-10.8,2.2-19.8l0,0l9.5-76.2
	c0.2-1.2,1.2-2.1,2.4-2.1h16.3c3,0,5.3,1.7,6.9,5.1c1.6,3.4,2.4,7.6,2.4,12.6l0,0c0,3.5-0.2,6.6-0.5,9.3c-0.4,2.7-0.8,5.8-1.4,9.2
	c-0.6,3.4-1.5,8.3-2.5,14.7l0,0l-3.7,22.7c-0.7,4.9-1.3,9.3-1.7,13c-0.5,3.8-0.7,6.9-0.7,9.4l0,0c0,3.7,0.4,6.5,1.2,8.3
	c0.8,1.9,2.6,2.8,5.4,2.8l0,0c3,0,6.5-1.9,10.4-5.8c3.9-3.9,8-8.9,12.2-15c4.2-6.2,8.1-12.8,11.8-19.8c3.6-7,6.5-13.9,8.8-20.5
	c2.3-6.6,3.4-12.1,3.4-16.5l0,0c0-3-0.3-6.2-0.8-9.7c-0.5-3.4-0.8-6.4-0.8-9.1l0,0c0-2.1,1.7-4,5.2-5.7c3.4-1.7,7.3-2.9,11.6-3.8
	c4.3-0.9,7.7-1.3,10.1-1.3l0,0c2.5,0,4.4,1.1,6,3.4c1.5,2.3,2.2,6.6,2.2,12.9l0,0c0,3-0.5,7.4-1.4,13.3c-1,5.9-1.7,11.4-2,16.5l0,0
	l-6.6,75.5c-1.1,11.4-3.9,21.3-8.5,29.7c-4.7,8.3-10.5,15.2-17.6,20.6c-7,5.3-14.7,9.3-23,12C1254.3,614.6,1246.1,615.9,1238,615.9z
	"/>
<path id="cemi-circle" class="st2" d="M273.4,486.5c0-177.2,143.7-320.9,320.9-320.9c141.4,0,261.4,91.4,304.1,218.3h-7.9
	c-42.5-122.7-159.1-210.8-296.2-210.8c-173.1,0-313.4,140.3-313.4,313.4s140.3,313.4,313.4,313.4c137.2,0,253.8-88.1,296.2-210.8
	h7.9C855.7,716,735.7,807.4,594.3,807.4C417.1,807.4,273.4,663.7,273.4,486.5L273.4,486.5z"/>
</svg>
